<svg width='100' height='100' viewBox='0 0 24 24' xmlns='http://www.w3.org/2000/svg' xmlns:xlink='http://www.w3.org/1999/xlink'><rect width='24' height='24' stroke='none' fill='#000000' opacity='0'/>


<g transform="matrix(0.31 0 0 0.31 12 12)" >
<g style="" >
<g transform="matrix(1 0 0 1 0 0)" >
<linearGradient id="SVGID_eGGZk_6wafGGPnbxegQFAa_13" gradientUnits="userSpaceOnUse" gradientTransform="matrix(1 0 0 1 0 0)" x1="32" y1="5.625" x2="32" y2="59.18">
<stop offset="0%" style="stop-color:rgb(26,109,255);stop-opacity: 1"/>
<stop offset="100%" style="stop-color:rgb(200,34,255);stop-opacity: 1"/>
</linearGradient>
<path style="stroke: none; stroke-width: 1; stroke-dasharray: none; stroke-linecap: butt; stroke-dashoffset: 0; stroke-linejoin: miter; stroke-miterlimit: 4; fill: url(#SVGID_eGGZk_6wafGGPnbxegQFAa_13); fill-rule: nonzero; opacity: 1;" transform=" translate(-32, -32)" d="M 24.028 58 L 22.064999999999998 58 C 21.377 58 20.746999999999996 57.653 20.377 57.073 C 20.008 56.491 19.961 55.771 20.253999999999998 55.147 L 27.011 40 L 15.999 40 C 14.811 40 13.767 39.327 13.273 38.243 C 12.779 37.157000000000004 12.959999999999999 35.923 13.744 35.024 L 38.468 6.684 C 38.848 6.249 39.396 6 39.971 6 L 41.934999999999995 6 C 42.62199999999999 6 43.251 6.346 43.620999999999995 6.926 C 43.992 7.507 44.038 8.228 43.74699999999999 8.852 L 36.667 24 L 48.002 24 C 49.190000000000005 24 50.234 24.673000000000002 50.728 25.757 C 51.222 26.843 51.041000000000004 28.077 50.257000000000005 28.976000000000003 L 25.531 57.316 C 25.153 57.75 24.605 58 24.028 58 z M 39.971 8 L 15.250999999999998 36.339 C 14.855999999999998 36.791 15.029999999999998 37.277 15.093999999999998 37.416 C 15.157 37.553 15.406 38 15.999 38 L 30.094 38 L 22.073 55.979 L 24.028 56 L 48.748999999999995 27.661 C 49.144 27.209 48.96999999999999 26.723000000000003 48.90599999999999 26.584000000000003 C 48.843 26.447 48.594 26 48.001 26 L 33.524 26 L 41.934 8.004999999999999 L 39.971 8 z" stroke-linecap="round" />
</g>
<g transform="matrix(1 0 0 1 0 0.2)" >
<linearGradient id="SVGID_eGGZk_6wafGGPnbxegQFAb_14" gradientUnits="userSpaceOnUse" gradientTransform="matrix(1 0 0 1 0 0)" x1="32" y1="18.75" x2="32" y2="44.809">
<stop offset="0%" style="stop-color:rgb(109,199,255);stop-opacity: 1"/>
<stop offset="100%" style="stop-color:rgb(230,171,255);stop-opacity: 1"/>
</linearGradient>
<path style="stroke: none; stroke-width: 1; stroke-dasharray: none; stroke-linecap: butt; stroke-dashoffset: 0; stroke-linejoin: miter; stroke-miterlimit: 4; fill: url(#SVGID_eGGZk_6wafGGPnbxegQFAb_14); fill-rule: nonzero; opacity: 1;" transform=" translate(-32, -32.2)" d="M 31.226 43.457 L 35.232 35.446 C 35.564 34.782 35.081 34 34.338 34 L 23.093 34 C 22.244 34 21.78 33.01 22.324 32.358 L 32.298 20.389999999999997 C 32.691 19.917999999999996 33.426 20.427999999999997 33.121 20.961 L 28.810000000000002 28.506 C 28.428 29.171 28.909 30 29.676 30 L 40.907 30 C 41.739999999999995 30 42.208999999999996 30.958 41.696999999999996 31.616 L 32.071999999999996 43.991 C 31.7 44.47 30.954 44.001 31.226 43.457 z" stroke-linecap="round" />
</g>
</g>
</g>
</svg>